#!OML:ASF F:\VICON\USERDATA\INSTALL\rory3\rory3.ASF
:FULLY-SPECIFIED
:DEGREES
370
root 0.0859168 16.1861 -4.97519 -159.324 0.881657 184.449
lowerback -9.81918 2.77238 4.00962
upperback -6.15411 4.11746 1.20854
thorax -0.744714 2.29846 -0.625532
lowerneck -1.9341 7.37564 0.837551
upperneck 50.718 -3.77965 4.15062
head 20.855 -4.39599 0.0739511
rclavicle 3.8266e-014 3.85642e-014
rhumerus 73.3152 -16.6601 -31.5866
rradius 55.7217
rwrist -41.9082
rhand 14.9254 2.66459
rfingers 7.12502
rthumb 39.7814 -22.627
lclavicle 3.8266e-014 3.85642e-014
lhumerus 68.1686 21.7582 20.2412
lradius 76.7724
lwrist 44.1544
lhand 7.75321 19.0619
lfingers 7.12502
lthumb 32.9924 46.0638
rfemur -27.3908 4.71619 32.5907
rtibia 38.2275
rfoot -36.0008 -30.8479
rtoes 1.56664
lfemur -60.8396 13.1663 -32.7406
ltibia 41.1139
lfoot -10.7053 19.513
ltoes -9.4388
371
root 0.0857997 16.2051 -4.93107 -159.325 0.748702 184.466
lowerback -10.0144 2.8209 4.20964
upperback -6.10897 4.15256 1.14474
thorax -0.573704 2.31266 -0.784377
lowerneck -2.10446 7.2945 0.810938
upperneck 50.7256 -3.91663 4.21161
head 20.9239 -4.43652 0.0879432
rclavicle -6.65929e-015 -1.39149e-014
rhumerus 71.0818 -17.9645 -29.2064
rradius 58.8727
rwrist -39.2664
rhand 14.5459 2.58579
rfingers 7.12502
rthumb 39.424 -22.8115
lclavicle -6.65929e-015 -1.39149e-014
lhumerus 65.8399 22.4965 18.1477
lradius 78.6776
lwrist 39.8103
lhand 5.99919 18.7771
lfingers 7.12502
lthumb 31.3226 46.1166
rfemur -27.4161 3.94376 32.664
rtibia 37.9529
rfoot -35.9232 -29.7942
rtoes 2.59931
lfemur -61.4266 13.6825 -33.1501
ltibia 41.6784
lfoot -10.7205 19.821
ltoes -12.7245
372
root 0.101126 16.2179 -4.88391 -159.285 0.848968 184.232
lowerback -10.2448 2.91164 3.95495
upperback -6.1206 4.28206 0.970982
thorax -0.456856 2.38273 -0.794695
lowerneck -2.09739 7.25174 0.94849
upperneck 50.7245 -4.0834 4.34915
head 20.943 -4.4587 0.107917
rclavicle 3.85145e-016 -1.0138e-014
rhumerus 68.5983 -19.0967 -26.9797
rradius 62.0739
rwrist -35.9506
rhand 14.2324 2.59791
rfingers 7.12502
rthumb 39.1286 -22.8851
lclavicle 3.85145e-016 -1.0138e-014
lhumerus 63.4443 23.0073 15.9831
lradius 80.5362
lwrist 35.1287
lhand 4.16628 18.0999
lfingers 7.12502
lthumb 29.5744 45.7634
rfemur -27.6138 3.88519 32.4443
rtibia 37.831
rfoot -35.8288 -29.4165
rtoes 3.88519
lfemur -62.0059 14.2503 -33.7395
ltibia 42.1816
lfoot -10.9025 19.4539
ltoes -11.1567
373
root 0.0985211 16.2256 -4.82896 -159.284 0.450081 184.718
lowerback -10.3135 3.007 4.8142
upperback -6.22884 4.36461 0.909764
thorax -0.474144 2.41186 -1.32502
lowerneck -2.00611 7.13515 1.38803
upperneck 50.7184 -4.32722 4.23929
head 20.9283 -4.48531 -0.070164
rclavicle 3.03147e-014 -4.96962e-015
rhumerus 65.835 -19.9901 -24.7329
rradius 65.2851
rwrist -32.4288
rhand 13.6691 2.84034
rfingers 7.12502
rthumb 38.5975 -22.7938
lclavicle 3.03147e-014 -4.96962e-015
lhumerus 61.0345 23.4343 13.8664
lradius 82.3276
lwrist 30.1701
lhand 2.53331 17.2019
lfingers 7.12502
lthumb 28.0145 45.1308
rfemur -27.8154 3.10883 33.137
rtibia 37.8029
rfoot -35.2651 -29.1444
rtoes 3.68372
lfemur -62.6777 14.7332 -33.6219
ltibia 42.7222
lfoot -9.64802 17.9124
ltoes -7.69291
374
root 0.127125 16.2355 -4.78895 -159.243 0.744806 184.6
lowerback -10.2527 2.91349 4.34516
upperback -6.755 4.38457 0.885752
thorax -1.08671 2.45163 -1.11616
lowerneck -0.945833 7.28048 1.83691
upperneck 50.8072 -4.46606 4.17733
head 20.702 -4.58081 -0.22171
rclavicle -1.68781e-014 -5.96354e-015
rhumerus 63.0505 -20.0107 -22.6594
rradius 68.6522
rwrist -28.9631
rhand 13.0925 3.09925
rfingers 7.12502
rthumb 38.0532 -22.6855
lclavicle -1.68781e-014 -5.96354e-015
lhumerus 58.2426 23.2658 11.8268
lradius 83.9988
lwrist 24.8849
lhand 1.80463 16.4953
lfingers 7.12502
lthumb 27.3177 44.5361
rfemur -28.0396 4.04742 32.9849
rtibia 37.8209
rfoot -35.308 -29.755
rtoes 4.77826
lfemur -63.4863 15.5974 -34.2027
ltibia 43.2656
lfoot -7.68822 17.0453
ltoes -9.14167
375
root 0.15987 16.2456 -4.75845 -159.127 1.31995 184.044
lowerback -10.662 3.06778 3.40051
upperback -6.75539 4.64258 0.644408
thorax -0.89315 2.60599 -0.787861
lowerneck -1.2866 7.1847 1.63204
upperneck 50.8262 -4.7981 4.61521
head 20.8652 -4.69183 -0.0159987
rclavicle 4.16268e-014 5.76476e-015
rhumerus 60.2137 -20.8834 -20.512
rradius 71.94
rwrist -25.0788
rhand 12.3463 3.63455
rfingers 7.12502
rthumb 37.3482 -22.3391
lclavicle 4.16268e-014 5.76476e-015
lhumerus 56.1362 23.5519 10.3766
lradius 85.5031
lwrist 19.1654
lhand 0.250128 15.605
lfingers 7.12502
lthumb 25.8299 43.8711
rfemur -28.3122 5.43359 32.2456
rtibia 37.8519
rfoot -35.611 -30.4638
rtoes 6.25779
lfemur -64.3595 16.5319 -35.3121
ltibia 43.8417
lfoot -6.04007 16.7261
ltoes -12.5289
